<mxfile host="app.diagrams.net" modified="2024-02-23T13:16:13.386Z" agent="Mozilla/5.0 (Windows NT 10.0; Win64; x64) AppleWebKit/537.36 (KHTML, like Gecko) Chrome/121.0.0.0 Safari/537.36" etag="SA21XSyR8C65L-mE80Gf" version="23.1.1" type="github">
  <diagram id="C5RBs43oDa-KdzZeNtuy" name="Page-1">
    <mxGraphModel dx="1904" dy="1348" grid="1" gridSize="10" guides="1" tooltips="1" connect="1" arrows="1" fold="1" page="1" pageScale="1" pageWidth="827" pageHeight="1169" background="#FFFFFF" math="0" shadow="0">
      <root>
        <mxCell id="WIyWlLk6GJQsqaUBKTNV-0" />
        <mxCell id="WIyWlLk6GJQsqaUBKTNV-1" parent="WIyWlLk6GJQsqaUBKTNV-0" />
        <mxCell id="IlHd5ytfKOKlLrHz04dE-11" value="" style="edgeStyle=none;curved=1;rounded=0;orthogonalLoop=1;jettySize=auto;html=1;fontSize=12;startSize=8;endSize=8;" edge="1" parent="WIyWlLk6GJQsqaUBKTNV-1" source="WIyWlLk6GJQsqaUBKTNV-3" target="IlHd5ytfKOKlLrHz04dE-8">
          <mxGeometry relative="1" as="geometry" />
        </mxCell>
        <mxCell id="WIyWlLk6GJQsqaUBKTNV-3" value="Dane z PC dotyczące prędkości obrotowej oraz kierunku obrotu silników krokowych, dostarczana jako ciąg znaków, gdzie wartość RPM oraz kierunku podzielone są spacją&amp;nbsp;" style="rounded=1;whiteSpace=wrap;html=1;fontSize=12;glass=0;strokeWidth=1;shadow=0;" parent="WIyWlLk6GJQsqaUBKTNV-1" vertex="1">
          <mxGeometry x="-70" y="60" width="180" height="110" as="geometry" />
        </mxCell>
        <mxCell id="WIyWlLk6GJQsqaUBKTNV-4" value="tak" style="rounded=0;html=1;jettySize=auto;orthogonalLoop=1;fontSize=11;endArrow=block;endFill=0;endSize=8;strokeWidth=1;shadow=0;labelBackgroundColor=none;edgeStyle=orthogonalEdgeStyle;" parent="WIyWlLk6GJQsqaUBKTNV-1" source="WIyWlLk6GJQsqaUBKTNV-6" edge="1">
          <mxGeometry x="0.0122" y="20" relative="1" as="geometry">
            <mxPoint as="offset" />
            <mxPoint x="220" y="290" as="targetPoint" />
          </mxGeometry>
        </mxCell>
        <mxCell id="WIyWlLk6GJQsqaUBKTNV-5" value="nie" style="edgeStyle=orthogonalEdgeStyle;rounded=0;html=1;jettySize=auto;orthogonalLoop=1;fontSize=11;endArrow=block;endFill=0;endSize=8;strokeWidth=1;shadow=0;labelBackgroundColor=none;entryX=1;entryY=0.5;entryDx=0;entryDy=0;" parent="WIyWlLk6GJQsqaUBKTNV-1" source="WIyWlLk6GJQsqaUBKTNV-6" target="IlHd5ytfKOKlLrHz04dE-8" edge="1">
          <mxGeometry y="10" relative="1" as="geometry">
            <mxPoint as="offset" />
            <mxPoint x="320" y="210" as="targetPoint" />
            <Array as="points">
              <mxPoint x="300" y="210" />
              <mxPoint x="300" y="110" />
            </Array>
          </mxGeometry>
        </mxCell>
        <mxCell id="WIyWlLk6GJQsqaUBKTNV-6" value="Czy dane zostały odebrane?" style="rhombus;whiteSpace=wrap;html=1;shadow=0;fontFamily=Helvetica;fontSize=12;align=center;strokeWidth=1;spacing=6;spacingTop=-4;" parent="WIyWlLk6GJQsqaUBKTNV-1" vertex="1">
          <mxGeometry x="170" y="170" width="100" height="80" as="geometry" />
        </mxCell>
        <mxCell id="IlHd5ytfKOKlLrHz04dE-13" value="" style="edgeStyle=none;curved=1;rounded=0;orthogonalLoop=1;jettySize=auto;html=1;fontSize=12;startSize=8;endSize=8;" edge="1" parent="WIyWlLk6GJQsqaUBKTNV-1">
          <mxGeometry relative="1" as="geometry">
            <mxPoint x="220" y="410" as="sourcePoint" />
            <mxPoint x="220" y="464" as="targetPoint" />
          </mxGeometry>
        </mxCell>
        <mxCell id="IlHd5ytfKOKlLrHz04dE-7" style="edgeStyle=none;curved=1;rounded=0;orthogonalLoop=1;jettySize=auto;html=1;exitX=1;exitY=1;exitDx=0;exitDy=0;fontSize=12;startSize=8;endSize=8;" edge="1" parent="WIyWlLk6GJQsqaUBKTNV-1">
          <mxGeometry relative="1" as="geometry">
            <mxPoint x="240" y="122.5" as="sourcePoint" />
            <mxPoint x="240" y="122.5" as="targetPoint" />
          </mxGeometry>
        </mxCell>
        <mxCell id="IlHd5ytfKOKlLrHz04dE-8" value="Oczekiwanie na dane" style="rounded=1;whiteSpace=wrap;html=1;fontSize=16;" vertex="1" parent="WIyWlLk6GJQsqaUBKTNV-1">
          <mxGeometry x="160" y="80" width="120" height="60" as="geometry" />
        </mxCell>
        <mxCell id="IlHd5ytfKOKlLrHz04dE-10" value="" style="endArrow=classic;html=1;rounded=0;fontSize=12;startSize=8;endSize=8;curved=1;entryX=0.5;entryY=0;entryDx=0;entryDy=0;" edge="1" parent="WIyWlLk6GJQsqaUBKTNV-1" target="WIyWlLk6GJQsqaUBKTNV-6">
          <mxGeometry width="50" height="50" relative="1" as="geometry">
            <mxPoint x="220" y="140" as="sourcePoint" />
            <mxPoint x="270" y="90" as="targetPoint" />
          </mxGeometry>
        </mxCell>
        <mxCell id="IlHd5ytfKOKlLrHz04dE-14" value="Podzielenie danych na odrębne zmienne liczbowe prędkości obrotowej oraz kierunku obrotu" style="rounded=1;whiteSpace=wrap;html=1;fontSize=12;glass=0;strokeWidth=1;shadow=0;" vertex="1" parent="WIyWlLk6GJQsqaUBKTNV-1">
          <mxGeometry x="130" y="290" width="180" height="110" as="geometry" />
        </mxCell>
        <mxCell id="IlHd5ytfKOKlLrHz04dE-26" value="" style="edgeStyle=none;curved=1;rounded=0;orthogonalLoop=1;jettySize=auto;html=1;fontSize=12;startSize=8;endSize=8;" edge="1" parent="WIyWlLk6GJQsqaUBKTNV-1" source="IlHd5ytfKOKlLrHz04dE-16" target="IlHd5ytfKOKlLrHz04dE-18">
          <mxGeometry relative="1" as="geometry" />
        </mxCell>
        <mxCell id="IlHd5ytfKOKlLrHz04dE-29" value="tak" style="edgeLabel;html=1;align=center;verticalAlign=middle;resizable=0;points=[];fontSize=16;" vertex="1" connectable="0" parent="IlHd5ytfKOKlLrHz04dE-26">
          <mxGeometry x="-0.3012" y="5" relative="1" as="geometry">
            <mxPoint as="offset" />
          </mxGeometry>
        </mxCell>
        <mxCell id="IlHd5ytfKOKlLrHz04dE-28" value="" style="edgeStyle=none;curved=1;rounded=0;orthogonalLoop=1;jettySize=auto;html=1;fontSize=12;startSize=8;endSize=8;" edge="1" parent="WIyWlLk6GJQsqaUBKTNV-1" source="IlHd5ytfKOKlLrHz04dE-16" target="IlHd5ytfKOKlLrHz04dE-27">
          <mxGeometry relative="1" as="geometry" />
        </mxCell>
        <mxCell id="IlHd5ytfKOKlLrHz04dE-30" value="nie" style="edgeLabel;html=1;align=center;verticalAlign=middle;resizable=0;points=[];fontSize=16;" vertex="1" connectable="0" parent="IlHd5ytfKOKlLrHz04dE-28">
          <mxGeometry x="-0.1481" y="2" relative="1" as="geometry">
            <mxPoint y="1" as="offset" />
          </mxGeometry>
        </mxCell>
        <mxCell id="IlHd5ytfKOKlLrHz04dE-16" value="Sprawdzenie czy wartość prędkości obrotowej jest równa 500" style="rhombus;whiteSpace=wrap;html=1;fontSize=16;" vertex="1" parent="WIyWlLk6GJQsqaUBKTNV-1">
          <mxGeometry x="130" y="460" width="190" height="170" as="geometry" />
        </mxCell>
        <mxCell id="IlHd5ytfKOKlLrHz04dE-22" value="" style="edgeStyle=none;curved=1;rounded=0;orthogonalLoop=1;jettySize=auto;html=1;fontSize=12;startSize=8;endSize=8;" edge="1" parent="WIyWlLk6GJQsqaUBKTNV-1" source="IlHd5ytfKOKlLrHz04dE-18" target="IlHd5ytfKOKlLrHz04dE-21">
          <mxGeometry relative="1" as="geometry" />
        </mxCell>
        <mxCell id="IlHd5ytfKOKlLrHz04dE-18" value="Decyzja o nie odbieraniu danych z układów pomiarowych" style="rounded=1;whiteSpace=wrap;html=1;fontSize=12;glass=0;strokeWidth=1;shadow=0;" vertex="1" parent="WIyWlLk6GJQsqaUBKTNV-1">
          <mxGeometry x="390" y="490" width="180" height="110" as="geometry" />
        </mxCell>
        <mxCell id="IlHd5ytfKOKlLrHz04dE-21" value="Wysłanie danych do mikrokontrolera sterującego silnikami krokowymi" style="rounded=1;whiteSpace=wrap;html=1;fontSize=12;glass=0;strokeWidth=1;shadow=0;" vertex="1" parent="WIyWlLk6GJQsqaUBKTNV-1">
          <mxGeometry x="390" y="660" width="180" height="110" as="geometry" />
        </mxCell>
        <mxCell id="IlHd5ytfKOKlLrHz04dE-32" value="" style="edgeStyle=none;curved=1;rounded=0;orthogonalLoop=1;jettySize=auto;html=1;fontSize=12;startSize=8;endSize=8;" edge="1" parent="WIyWlLk6GJQsqaUBKTNV-1" source="IlHd5ytfKOKlLrHz04dE-27" target="IlHd5ytfKOKlLrHz04dE-31">
          <mxGeometry relative="1" as="geometry" />
        </mxCell>
        <mxCell id="IlHd5ytfKOKlLrHz04dE-27" value="Rozpoczęcie pomiarów poprzez wysłanie zmiennej start do mikrokontrolera sterującego belką tensometryczną, wysłanie danych do mikrokontrolera sterującego silnikami krokowymi" style="rounded=1;whiteSpace=wrap;html=1;fontSize=12;glass=0;strokeWidth=1;shadow=0;" vertex="1" parent="WIyWlLk6GJQsqaUBKTNV-1">
          <mxGeometry x="130" y="690" width="180" height="110" as="geometry" />
        </mxCell>
        <mxCell id="IlHd5ytfKOKlLrHz04dE-34" style="edgeStyle=none;curved=1;rounded=0;orthogonalLoop=1;jettySize=auto;html=1;exitX=0.5;exitY=1;exitDx=0;exitDy=0;entryX=0.5;entryY=0;entryDx=0;entryDy=0;fontSize=12;startSize=8;endSize=8;" edge="1" parent="WIyWlLk6GJQsqaUBKTNV-1" source="IlHd5ytfKOKlLrHz04dE-31" target="IlHd5ytfKOKlLrHz04dE-33">
          <mxGeometry relative="1" as="geometry" />
        </mxCell>
        <mxCell id="IlHd5ytfKOKlLrHz04dE-35" value="tak" style="edgeLabel;html=1;align=center;verticalAlign=middle;resizable=0;points=[];fontSize=16;" vertex="1" connectable="0" parent="IlHd5ytfKOKlLrHz04dE-34">
          <mxGeometry x="-0.6214" y="2" relative="1" as="geometry">
            <mxPoint as="offset" />
          </mxGeometry>
        </mxCell>
        <mxCell id="IlHd5ytfKOKlLrHz04dE-31" value="Czy dane &lt;br&gt;pomiarowe&lt;br&gt;zostały odebrane?" style="rhombus;whiteSpace=wrap;html=1;shadow=0;fontFamily=Helvetica;fontSize=12;align=center;strokeWidth=1;spacing=6;spacingTop=-4;" vertex="1" parent="WIyWlLk6GJQsqaUBKTNV-1">
          <mxGeometry x="140" y="850" width="160" height="150" as="geometry" />
        </mxCell>
        <mxCell id="IlHd5ytfKOKlLrHz04dE-38" value="" style="edgeStyle=none;curved=1;rounded=0;orthogonalLoop=1;jettySize=auto;html=1;fontSize=12;startSize=8;endSize=8;" edge="1" parent="WIyWlLk6GJQsqaUBKTNV-1" source="IlHd5ytfKOKlLrHz04dE-33" target="IlHd5ytfKOKlLrHz04dE-36">
          <mxGeometry relative="1" as="geometry" />
        </mxCell>
        <mxCell id="IlHd5ytfKOKlLrHz04dE-33" value="Odbiór danych oraz przypisanie ich do ciągu znaków, gdzie wartość pomiaru z belki tensometrycznej oraz enkodera podzielone są spacjami" style="rounded=1;whiteSpace=wrap;html=1;fontSize=12;glass=0;strokeWidth=1;shadow=0;" vertex="1" parent="WIyWlLk6GJQsqaUBKTNV-1">
          <mxGeometry x="130" y="1090" width="180" height="110" as="geometry" />
        </mxCell>
        <mxCell id="IlHd5ytfKOKlLrHz04dE-36" value="wysłanie danych do PC" style="rounded=1;whiteSpace=wrap;html=1;fontSize=12;glass=0;strokeWidth=1;shadow=0;" vertex="1" parent="WIyWlLk6GJQsqaUBKTNV-1">
          <mxGeometry x="130" y="1260" width="180" height="110" as="geometry" />
        </mxCell>
        <mxCell id="IlHd5ytfKOKlLrHz04dE-41" value="" style="endArrow=classic;html=1;rounded=0;fontSize=12;startSize=8;endSize=8;curved=1;" edge="1" parent="WIyWlLk6GJQsqaUBKTNV-1">
          <mxGeometry width="50" height="50" relative="1" as="geometry">
            <mxPoint x="300" y="820" as="sourcePoint" />
            <mxPoint x="220" y="820" as="targetPoint" />
          </mxGeometry>
        </mxCell>
        <mxCell id="IlHd5ytfKOKlLrHz04dE-42" value="" style="endArrow=none;html=1;rounded=0;fontSize=12;startSize=8;endSize=8;curved=1;exitX=1;exitY=0.5;exitDx=0;exitDy=0;" edge="1" parent="WIyWlLk6GJQsqaUBKTNV-1" source="IlHd5ytfKOKlLrHz04dE-31">
          <mxGeometry width="50" height="50" relative="1" as="geometry">
            <mxPoint x="330" y="910" as="sourcePoint" />
            <mxPoint x="300" y="820" as="targetPoint" />
          </mxGeometry>
        </mxCell>
        <mxCell id="IlHd5ytfKOKlLrHz04dE-44" value="nie" style="edgeLabel;html=1;align=center;verticalAlign=middle;resizable=0;points=[];fontSize=16;" vertex="1" connectable="0" parent="IlHd5ytfKOKlLrHz04dE-42">
          <mxGeometry x="0.1048" y="-2" relative="1" as="geometry">
            <mxPoint as="offset" />
          </mxGeometry>
        </mxCell>
      </root>
    </mxGraphModel>
  </diagram>
</mxfile>
